#!OML:ASF F:\VICON\USERDATA\INSTALL\rory3\rory3.ASF
:FULLY-SPECIFIED
:DEGREES
2899
root -0.00314705 15.5197 -1.95125 2.81718 13.1927 -7.33689
lowerback 29.0479 2.44993 -10.3478
upperback 14.4128 0.481352 -10.6668
thorax 0.584685 0.261531 -5.83726
lowerneck -10.4887 -5.25841 -13.277
upperneck 13.2812 -6.55334 10.8326
head 6.56029 -3.03911 5.08429
rclavicle 8.90555e-014 1.59028e-013
rhumerus 122.538 -9.45303 -627.564
rradius 12.385
rwrist 561.516
rhand -18.0435 6.19752
rfingers 7.12502
rthumb 8.22836 -23.6222
lclavicle 8.90555e-014 1.59028e-013
lhumerus 41.5858 7.33981 124.942
lradius 13.088
lwrist 41.7149
lhand -11.4471 37.5756
lfingers 7.12502
lthumb 14.5898 67.0424
rfemur -23.2875 -1.21852 23.9342
rtibia 38.3396
rfoot -14.216 -13.0623
rtoes -11.5403
lfemur -31.2045 -11.7127 -5.79804
ltibia 40.8527
lfoot -10.338 -3.25471
ltoes -15.8445
2900
root 0.000780815 15.5119 -1.94343 2.84271 13.6 -7.54488
lowerback 29.2698 2.4706 -10.564
upperback 14.5568 0.45419 -10.4696
thorax 0.665322 0.228749 -5.51395
lowerneck -11.2679 -5.33483 -13.7878
upperneck 13.2015 -6.50336 11.0483
head 6.68987 -3.00236 5.23389
rclavicle 1.90833e-014 3.33958e-014
rhumerus 122.056 -10.3429 -627.189
rradius 12.3174
rwrist 561.326
rhand -17.9135 6.12109
rfingers 7.12502
rthumb 8.3538 -23.6937
lclavicle 1.90833e-014 3.33958e-014
lhumerus 42.1656 7.53449 124.785
lradius 13.419
lwrist 42.1194
lhand -11.5964 37.6549
lfingers 7.12502
lthumb 14.4459 67.1321
rfemur -23.3887 -1.5794 24.1537
rtibia 38.4855
rfoot -14.3778 -13.1035
rtoes -11.5785
lfemur -31.552 -11.9629 -5.55658
ltibia 41.1055
lfoot -10.3884 -3.35834
ltoes -15.7592
2901
root 0.000937054 15.5029 -1.93614 2.91448 14.0155 -7.77488
lowerback 29.4596 2.37229 -10.9349
upperback 14.8308 0.268238 -10.2017
thorax 0.907158 0.0988275 -4.99471
lowerneck -12.9211 -5.43965 -14.7244
upperneck 13.4677 -6.31785 11.3556
head 7.08152 -2.89053 5.49591
rclavicle 9.54166e-015 -8.74653e-014
rhumerus 121.291 -11.2506 -627.302
rradius 12.3186
rwrist 562.097
rhand -18.069 5.90662
rfingers 7.12502
rthumb 8.20373 -23.9141
lclavicle 9.54166e-015 -8.74653e-014
lhumerus 43.3385 8.36974 125.341
lradius 13.8728
lwrist 41.8979
lhand -11.7686 37.5762
lfingers 7.12502
lthumb 14.28 67.0652
rfemur -23.5692 -1.8743 24.4135
rtibia 38.656
rfoot -14.4654 -13.2209
rtoes -11.8835
lfemur -31.9943 -12.1922 -5.25181
ltibia 41.3699
lfoot -10.3859 -3.5784
ltoes -15.3644
2902
root 0.00437497 15.4958 -1.924 3.07337 14.3071 -7.85024
lowerback 29.4486 2.61165 -11.0544
upperback 14.7117 0.526953 -10.2211
thorax 0.793932 0.22889 -5.02187
lowerneck -12.3451 -5.42671 -14.4459
upperneck 13.1598 -6.43078 11.4491
head 6.89136 -2.93902 5.47134
rclavicle -6.99722e-014 -6.36111e-014
rhumerus 121.725 -11.0908 -627.793
rradius 12.1986
rwrist 562.624
rhand -18.1995 5.87401
rfingers 7.12502
rthumb 8.07782 -23.9516
lclavicle -6.99722e-014 -6.36111e-014
lhumerus 43.1418 8.63833 125.34
lradius 13.9586
lwrist 41.8476
lhand -11.9048 37.4404
lfingers 7.12502
lthumb 14.1487 66.9386
rfemur -23.8163 -2.12443 24.5053
rtibia 38.8607
rfoot -14.5383 -13.2768
rtoes -12.0606
lfemur -32.4104 -12.3555 -5.1196
ltibia 41.6262
lfoot -10.3947 -3.70044
ltoes -15.1359
2903
root 0.011688 15.4894 -1.91035 3.18577 14.6184 -7.8274
lowerback 29.5381 2.72313 -11.3815
upperback 14.6905 0.574608 -10.2085
thorax 0.753601 0.239669 -4.85668
lowerneck -12.3079 -5.4018 -14.5584
upperneck 12.919 -6.38854 11.5882
head 6.81069 -2.91391 5.53925
rclavicle 3.81667e-014 -5.08889e-014
rhumerus 121.895 -11.0403 -628.614
rradius 12.0529
rwrist 563.528
rhand -18.1023 5.96033
rfingers 7.12502
rthumb 8.17163 -23.8617
lclavicle 3.81667e-014 -5.08889e-014
lhumerus 43.4599 8.85032 125.034
lradius 13.8378
lwrist 42.2023
lhand -11.8889 37.1672
lfingers 7.12502
lthumb 14.1641 66.6643
rfemur -23.9765 -2.46315 24.4702
rtibia 39.0634
rfoot -14.6383 -13.2542
rtoes -12.3099
lfemur -32.7352 -12.5913 -5.13212
ltibia 41.869
lfoot -10.3985 -3.7006
ltoes -15.2016
2904
root 0.0162725 15.4813 -1.90053 3.2695 15.1166 -7.86827
lowerback 29.7154 2.79193 -11.4962
upperback 14.8241 0.637715 -10.113
thorax 0.83879 0.262809 -4.71944
lowerneck -12.6948 -5.53592 -14.808
upperneck 12.7107 -6.48915 11.7766
head 6.84108 -2.94797 5.62518
rclavicle 2.8625e-014 4.6118e-014
rhumerus 121.661 -10.7892 -629.288
rradius 12.2333
rwrist 564.478
rhand -18.3122 5.95557
rfingers 7.12502
rthumb 7.96898 -23.8742
lclavicle 2.8625e-014 4.6118e-014
lhumerus 43.9576 8.87228 125.067
lradius 13.6559
lwrist 42.2612
lhand -11.8562 36.8448
lfingers 7.12502
lthumb 14.1956 66.3397
rfemur -24.1319 -2.93531 24.5039
rtibia 39.2545
rfoot -14.8095 -13.2667
rtoes -12.4573
lfemur -33.1246 -12.9736 -5.05516
ltibia 42.0905
lfoot -10.4065 -3.77432
ltoes -15.4737
2905
root 0.0195739 15.4761 -1.89048 3.35329 15.6109 -8.06569
lowerback 29.8194 2.92076 -11.2953
upperback 14.921 0.858769 -10.0887
thorax 0.900009 0.385543 -4.85883
lowerneck -12.7111 -5.70876 -14.7275
upperneck 12.3993 -6.7516 11.9709
head 6.78627 -3.05473 5.64267
rclavicle 9.54166e-015 -6.99722e-014
rhumerus 121.448 -10.2467 -629.927
rradius 12.7217
rwrist 565.169
rhand -18.9315 6.06677
rfingers 7.12502
rthumb 7.37125 -23.7848
lclavicle 9.54166e-015 -6.99722e-014
lhumerus 44.0474 9.01676 125.476
lradius 13.8295
lwrist 41.7413
lhand -11.6896 37.0295
lfingers 7.12502
lthumb 14.3561 66.5131
rfemur -24.2931 -3.38774 24.7113
rtibia 39.4031
rfoot -15.0182 -13.2228
rtoes -12.0932
lfemur -33.5503 -13.3325 -4.77924
ltibia 42.3029
lfoot -10.4615 -3.89939
ltoes -15.6644
